<?xml version="1.0" encoding="utf-8"?>
<!-- Generator: Adobe Illustrator 27.2.0, SVG Export Plug-In . SVG Version: 6.00 Build 0)  -->
<svg version="1.1" id="Calque_1" xmlns="http://www.w3.org/2000/svg" xmlns:xlink="http://www.w3.org/1999/xlink" x="0px" y="0px"
	 viewBox="0 0 595.3 841.9" style="enable-background:new 0 0 595.3 841.9;" xml:space="preserve">
<style type="text/css">
	.st0{fill:#1E1E1C;stroke:#1E1E1C;stroke-miterlimit:10;}
	.st1{fill:#FFFFFF;}
	.st2{fill:#1E1E1C;stroke:#1E1E1C;stroke-width:0.25;stroke-miterlimit:10;}
</style>
<g>
	<ellipse class="st0" cx="219.6" cy="342.8" rx="8" ry="8"/>
	<path class="st1" d="M224.6,343.4c-0.3,0-0.5,0.1-0.6,0.2c0.2-1.9-0.7-3.5-2.1-4.5c0.5-0.3,0.5-0.7,0.2-1c0,0.3-0.4,0.6-0.6,0.4
		c0.4-0.3,0.2-0.9-0.2-1.1c0,0.5,0.1,1.1-1,0.7c-1.2-0.4-1.9,0.1-2,0.4c-1.6,0.4-2.9,1.7-3.3,3.5c-0.1-0.1-0.2-0.3-0.5-0.4
		c-0.7-0.2-1.1,0.6-0.8,1.2c0.2,0.5,0.8,0.7,1.2,0.5c0.1,2.1,1.7,3.7,3.9,4.1c2.2,0.4,4.2-0.7,4.9-2.7c0.2,0.4,0.9,0.4,1.3-0.1
		C225.5,344.3,225.3,343.4,224.6,343.4L224.6,343.4z"/>
	<path class="st2" d="M222.7,341.3c0-0.5-0.3-0.8-0.7-0.8c-0.4,0-0.8,0.3-1.1,0.7c0-0.4-0.2-0.7-0.6-0.7c-0.5,0-0.8,0.4-1.3,1l0.3-1
		c0-0.1,0-0.2-0.1-0.2c0,0,0,0-0.1,0c-0.1,0.1-0.2,0.1-0.3,0.2c-0.5,0.4-1.1,0.8-1.6,0.8c-0.4,0-0.6-0.2-0.6-0.6
		c0-0.1,0-0.1-0.1-0.1c-0.1,0-0.1,0-0.1,0.1c-0.1,0.6,0.3,0.9,0.9,0.9c0.7,0,1.3-0.5,1.8-0.8l-0.5,1.4c0,0-0.5,0.8-0.5,0.9
		c-0.5,0.7-0.8,1.2-0.8,1.5c0,0.2,0.1,0.4,0.3,0.4c0.4,0,0.5-0.3,0.9-1.3l0.4-1.3c0.4-0.6,1.1-1.5,1.5-1.5c0.3,0,0.4,0.2,0.4,0.5
		c0,0.1,0,0.3-0.1,0.5c-0.3,0.9-0.6,1.9-0.9,2.9c0,0.1,0,0.2,0.1,0.2c0.1,0,0.1,0,0.1-0.1c0.5-1.5,0.6-1.7,1-3
		c0.3-0.4,0.7-0.9,1.1-0.9c0.3,0,0.5,0.2,0.5,0.5c0,0.4-0.2,0.8-0.4,1.5c-0.2,0.7-0.8,2.1-0.8,2.6c0,0.4,0.2,0.6,0.6,0.6
		c0.1,0,0.1-0.1,0.1-0.1c0-0.1-0.1-0.1-0.1-0.1c-0.2,0-0.4-0.1-0.4-0.4c0-0.4,0.5-1.8,0.8-2.5C222.5,342.2,222.7,341.7,222.7,341.3
		L222.7,341.3z"/>
</g>
</svg>
