<svg width="37" height="37" viewBox="0 0 37 37" fill="none" xmlns="http://www.w3.org/2000/svg">
<circle cx="18.5" cy="18.5" r="17" stroke="#30AA3C" stroke-width="3"/>
<path d="M20.6302 5.79132H17.7031V8.71842H20.6302V5.79132Z" fill="#30AA3C"/>
<path d="M21.1236 27.8371C20.9899 28.0653 20.799 28.2547 20.5697 28.3865C20.3404 28.5183 20.0806 28.588 19.8161 28.5886C19.5808 28.5886 19.3488 28.5337 19.1384 28.4284C18.928 28.323 18.745 28.1701 18.6041 27.9817C18.4631 27.7933 18.368 27.5746 18.3263 27.3431C18.2846 27.1115 18.2975 26.8734 18.3639 26.6477L21.3535 16.483C21.6542 15.4626 21.5521 14.3657 21.0682 13.4182C20.5842 12.4708 19.7553 11.7451 18.7523 11.3907C17.7492 11.0362 16.6484 11.0799 15.6767 11.5129C14.7049 11.9459 13.9362 12.735 13.529 13.7179L12.5469 16.0843L15.0241 17.1123L16.0063 14.7458C16.1503 14.3969 16.4229 14.1165 16.7676 13.9627C17.1124 13.8088 17.503 13.7932 17.859 13.919C18.2149 14.0448 18.509 14.3025 18.6805 14.6388C18.8519 14.9752 18.8877 15.3645 18.7805 15.7265L15.7909 25.8911C15.6069 26.5167 15.5712 27.1767 15.6868 27.8185C15.8024 28.4603 16.0659 29.0663 16.4566 29.5885C16.8473 30.1107 17.3543 30.5346 17.9374 30.8266C18.5205 31.1186 19.1636 31.2707 19.8158 31.2708C20.5491 31.2693 21.2693 31.0764 21.9051 30.7111C22.5409 30.3457 23.0702 29.8206 23.4407 29.1877L24.7063 27.0159L22.3892 25.6652L21.1236 27.8371Z" fill="#30AA3C"/>
</svg>
