<svg width="130" height="60" viewBox="0 0 130 60" fill="none" xmlns="http://www.w3.org/2000/svg">
<path d="M59.6971 17.5772C59.6971 13.5708 57.6507 11.4995 53.6955 11.4995C50.4393 11.4995 47.4621 13.8933 44.9484 16.9322C44.9484 13.7106 43.1809 11.0408 40.1565 11.0408C36.2955 11.0408 33.503 14.1728 29.7361 18.9103L32.3403 10.9942C32.4816 10.5355 32.2932 9.7041 31.4095 9.7041C31.2248 9.7041 31.0364 9.75069 30.8517 9.89045C30.1997 10.3491 29.3631 10.9046 28.5264 11.5031C24.6183 14.3126 19.7322 17.7636 15.451 17.7636C12.3796 17.7636 10.4274 16.0614 10.4274 12.6068C10.4274 12.0549 10.0543 11.5496 9.44943 11.5496C8.98581 11.5496 8.51858 11.9188 8.47149 12.3775C8.00788 16.8426 11.1228 19.6987 15.451 19.6987C20.8949 19.6987 25.6868 15.9682 29.5478 13.2088L25.9186 24.1639C25.8244 24.3502 21.8257 30.5176 21.5432 30.8831C17.4504 36.1761 14.9838 40.1825 14.9367 42.7591C14.9367 44.3717 15.6828 45.6582 17.4033 45.6582C20.4747 45.6582 21.7316 43.1712 24.1945 35.6242L27.6825 25.0347C31.2175 19.9711 36.1977 12.9723 40.0588 12.9723C42.1523 12.9723 42.9889 14.8609 42.9889 17.2081C42.9889 18.3119 42.7571 19.6486 42.2899 21.2146C40.1493 28.3495 37.4038 36.5882 34.7526 43.956C34.5678 44.5545 34.9373 45.2461 35.6834 45.2461C36.1036 45.2461 36.473 45.0168 36.6143 44.6011C40.8483 32.5853 41.4061 30.8365 44.4776 20.7093C46.7123 17.2583 50.2945 13.2984 53.6883 13.2984C56.4337 13.2984 57.8753 14.5419 57.8753 17.5808C57.8753 20.6197 56.4808 24.1639 54.572 29.3672C52.5727 34.8465 48.1973 46.4 48.1973 49.7148C48.1973 52.614 50.1061 54.7319 53.3152 54.7319C53.8259 54.7319 54.246 54.3162 54.246 53.8109C54.246 53.3056 53.8259 52.9365 53.3152 52.9365C51.5006 52.9365 50.059 51.7862 50.059 49.7148C50.059 46.8623 54.2931 35.3984 56.2925 30.0123C58.2447 24.6727 59.7804 20.8992 59.6899 17.5844L59.6971 17.5772ZM22.3364 35.0221C20.29 41.3293 19.3121 43.6765 17.4033 43.6765C17.0773 43.6765 16.8926 43.4006 16.8926 42.9383C16.9397 40.1753 18.939 38.2438 23.1731 31.9833C23.3276 31.7682 23.4363 31.5998 23.4991 31.478L22.3364 35.0221Z" fill="#1D1D1B" stroke="#1D1D1B" stroke-miterlimit="10"/>
<path d="M65.419 21.3977C66.3027 21.3977 67.0018 20.706 67.0018 19.8317C67.0018 18.9573 66.3027 18.2656 65.419 18.2656C64.5352 18.2656 63.7891 18.9573 63.7891 19.8317C63.7891 20.706 64.5352 21.3977 65.419 21.3977Z" fill="#1D1D1B" stroke="#1D1D1B" stroke-miterlimit="10"/>
<path d="M115.249 28.2101C116.691 26.5974 117.853 24.5727 117.853 22.7308C117.759 21.3977 116.97 20.3369 115.619 20.3369C113.71 20.3369 112.221 22.3616 112.221 24.7555C112.221 25.8126 112.5 26.8268 112.92 27.7908C112.362 28.3426 111.895 28.8515 111.337 29.493C111.2 29.6793 111.106 29.9087 111.106 30.0914C111.106 30.3674 111.2 30.6899 111.432 30.8727C111.616 31.059 111.895 31.102 112.131 31.102C112.41 31.102 112.688 30.9658 112.877 30.7329C113.156 30.3638 113.482 29.9983 113.808 29.6757C116.274 33.9581 116.97 35.2912 117.017 37.3159C116.922 41.1361 114.224 43.5765 110.457 43.5765C107.759 43.5765 105.386 41.5983 105.386 38.7888C105.571 35.9829 107.248 33.865 109.805 33.865C111.015 33.865 112.178 35.0153 112.272 36.5813C112.272 37.1332 112.692 37.5489 113.25 37.5489C113.808 37.5489 114.228 37.1332 114.228 36.5813C114.134 34.0477 112.181 31.9334 109.762 31.9334C106.897 31.9334 104.865 33.546 103.952 36.1728C101.569 41.2866 99.8485 43.5801 97.7586 43.5801C96.7807 43.5801 96.3642 42.9816 96.3642 41.6449C96.3642 40.4014 97.4326 36.6745 99.2038 31.9334C99.9028 30.0914 100.787 27.6044 101.808 24.9347C102.04 24.3362 101.576 23.6446 100.83 23.6446C100.457 23.6446 100.084 23.8739 99.9463 24.243C97.5268 30.7795 95.8064 35.6603 94.1765 38.882C92.6408 42.014 90.732 43.5765 88.8268 43.5765C87.1498 43.5765 86.2661 42.6089 86.2661 40.7239C86.2661 39.6596 86.4399 38.8856 87.5302 35.9291C87.5446 35.9004 87.5555 35.8718 87.57 35.8431C87.5845 35.8001 87.599 35.7535 87.6098 35.7105C88.4139 33.5388 89.6925 30.242 91.7099 24.9347C91.9417 24.3362 91.5687 23.6446 90.7791 23.6446C90.406 23.6446 90.0329 23.8739 89.8953 24.243C87.8598 29.4643 86.5232 32.8687 85.6648 35.2482C82.8795 41.1862 81.217 43.5765 79.0547 43.5765C78.0768 43.5765 77.6603 42.978 77.6603 41.6413C77.6603 38.0972 81.2895 32.066 81.2895 27.97C81.2895 25.5295 80.2645 23.641 76.9141 23.641C75.3784 23.641 73.9369 24.5154 72.5859 25.8986L72.9589 24.9777C73.1907 24.3792 72.7271 23.6876 72.0281 23.6876C71.6079 23.6876 71.2385 23.9169 71.0972 24.3326C70.0831 27.0884 68.7176 30.9085 67.2905 34.897C67.2543 34.9472 67.2181 35.001 67.1891 35.0547C65.4687 38.8282 63.3281 43.5729 60.4414 43.5729C59.4634 43.5729 59.0469 42.9744 59.0469 41.6378C59.0469 39.6596 59.8836 37.5417 64.3966 24.9741C64.6755 24.1929 64.0706 23.7306 63.4657 23.7306C63.0927 23.7306 62.7196 23.9599 62.582 24.3756C60.5356 29.6256 57.2323 38.047 57.0911 41.6378C56.9969 43.7557 58.2066 45.5044 60.4414 45.5044C61.7888 45.5044 62.9587 44.9454 64.0054 44.0137C63.9801 44.0818 63.9547 44.1499 63.933 44.2179C63.7482 44.7698 64.0271 45.2787 64.5378 45.4614C65.0485 45.6012 65.6063 45.3719 65.7947 44.8164L68.9892 35.8718C68.9892 35.8718 69.0001 35.8503 69.0037 35.8395C69.011 35.818 69.0182 35.7965 69.0255 35.775L69.0508 35.7033C70.5395 31.7901 74.0745 25.5761 76.9141 25.5761C78.7287 25.5761 79.3336 26.6333 79.3336 27.97C79.3336 31.9728 75.7044 37.3159 75.7044 41.6413C75.7044 43.899 76.82 45.508 79.0547 45.508C81.0577 45.508 82.6695 44.415 84.3863 41.8492C84.7267 44.2466 86.2226 45.508 88.7761 45.508H88.8232C90.9167 45.508 93.0573 44.1283 94.4047 42.2398C94.6836 44.2645 95.7086 45.508 97.755 45.508C99.9753 45.508 101.793 44.0818 103.746 40.7884C104.637 43.5299 107.317 45.508 110.454 45.508C115.151 45.508 118.875 42.333 118.969 37.3625C118.922 34.2305 117.665 32.6215 115.246 28.1993L115.249 28.2101ZM114.181 24.7125C114.181 24.0674 114.318 23.2396 114.88 22.6842C115.343 22.2255 115.858 22.0857 115.858 22.7308C115.858 23.7449 115.159 25.1712 114.416 26.1853C114.275 25.68 114.184 25.2178 114.184 24.7125H114.181Z" fill="#1D1D1B" stroke="#1D1D1B" stroke-miterlimit="10"/>
</svg>
