<svg width="228" height="105" viewBox="0 0 228 105" fill="none" xmlns="http://www.w3.org/2000/svg">
<path d="M104.699 30.7604C104.699 23.7491 101.11 20.1243 94.1735 20.1243C88.4627 20.1243 83.241 24.3135 78.8324 29.6316C78.8324 23.9937 75.7325 19.3216 70.4282 19.3216C63.6566 19.3216 58.7589 24.8027 52.1524 33.0933L56.7198 19.2401C56.9675 18.4374 56.6372 16.9824 55.0872 16.9824C54.7632 16.9824 54.4329 17.0639 54.1089 17.3085C52.9655 18.1113 51.4981 19.0833 50.0307 20.1306C43.1765 25.0473 34.6071 31.0865 27.0986 31.0865C21.7117 31.0865 18.2878 28.1077 18.2878 22.0622C18.2878 21.0964 17.6335 20.2121 16.5727 20.2121C15.7596 20.2121 14.9401 20.8581 14.8575 21.6608C14.0444 29.4748 19.5075 34.473 27.0986 34.473C36.6462 34.473 45.0504 27.9446 51.8221 23.1157L45.457 42.287C45.2918 42.6131 38.2788 53.406 37.7833 54.0457C30.6051 63.3083 26.2791 70.3196 26.1965 74.8287C26.1965 77.6508 27.5051 79.9021 30.5225 79.9021C35.9093 79.9021 38.1136 75.5499 42.4332 62.3426L48.5506 43.8109C54.7505 34.9496 63.4851 22.7018 70.2567 22.7018C73.9284 22.7018 75.3958 26.0068 75.3958 30.1145C75.3958 32.046 74.9892 34.3852 74.1698 37.1258C70.4155 49.6119 65.6004 64.0295 60.9505 76.9233C60.6265 77.9706 61.2744 79.1809 62.583 79.1809C63.3199 79.1809 63.9678 78.7796 64.2156 78.0521C71.6415 57.0245 72.6198 53.9641 78.0066 36.2415C81.9261 30.2023 88.2086 23.2725 94.1608 23.2725C98.9759 23.2725 101.504 25.4486 101.504 30.7667C101.504 36.0847 99.0584 42.287 95.7107 51.3929C92.2042 60.9817 84.5305 81.2003 84.5305 87.0012C84.5305 92.0747 87.8782 95.781 93.5065 95.781C94.4021 95.781 95.139 95.0536 95.139 94.1693C95.139 93.285 94.4021 92.6391 93.5065 92.6391C90.3239 92.6391 87.7957 90.626 87.7957 87.0012C87.7957 82.0093 95.2216 61.9475 98.7281 52.5217C102.152 43.1775 104.845 36.5739 104.687 30.773L104.699 30.7604ZM39.1745 61.289C35.5854 72.3264 33.8702 76.4341 30.5225 76.4341C29.9508 76.4341 29.6268 75.9512 29.6268 75.1422C29.7094 70.3071 33.2159 66.9269 40.6419 55.971C40.9129 55.5947 41.1035 55.2999 41.2136 55.0867L39.1745 61.289Z" fill="#1D1D1B" stroke="#1D1D1B" stroke-miterlimit="10"/>
<path d="M114.737 37.4459C116.287 37.4459 117.513 36.2356 117.513 34.7054C117.513 33.1752 116.287 31.9648 114.737 31.9648C113.187 31.9648 111.879 33.1752 111.879 34.7054C111.879 36.2356 113.187 37.4459 114.737 37.4459Z" fill="#1D1D1B" stroke="#1D1D1B" stroke-miterlimit="10"/>
<path d="M202.127 49.3678C204.655 46.5458 206.694 43.0025 206.694 39.7791C206.529 37.4461 205.144 35.5898 202.774 35.5898C199.427 35.5898 196.816 39.1331 196.816 43.3223C196.816 45.1724 197.305 46.9471 198.042 48.6341C197.064 49.5999 196.244 50.4904 195.266 51.613C195.025 51.9391 194.859 52.3404 194.859 52.6603C194.859 53.1432 195.025 53.7076 195.431 54.0274C195.755 54.3535 196.244 54.4288 196.657 54.4288C197.146 54.4288 197.635 54.1905 197.966 53.7828C198.455 53.1369 199.027 52.4972 199.598 51.9328C203.924 59.427 205.144 61.7599 205.226 65.3032C205.061 71.9883 200.329 76.2591 193.722 76.2591C188.99 76.2591 184.829 72.7973 184.829 67.8806C185.153 62.9702 188.094 59.2639 192.579 59.2639C194.701 59.2639 196.74 61.277 196.905 64.0175C196.905 64.9833 197.642 65.7108 198.62 65.7108C199.598 65.7108 200.335 64.9833 200.335 64.0175C200.17 59.5838 196.746 55.8837 192.503 55.8837C187.478 55.8837 183.914 58.7058 182.313 63.3026C178.134 72.2517 175.116 76.2654 171.451 76.2654C169.736 76.2654 169.005 75.218 169.005 72.8789C169.005 70.7027 170.879 64.1806 173.985 55.8837C175.211 52.6603 176.761 48.308 178.553 43.6359C178.959 42.5886 178.146 41.3782 176.838 41.3782C176.183 41.3782 175.529 41.7796 175.288 42.4255C171.044 53.8643 168.027 62.4058 165.168 68.0437C162.475 73.5248 159.127 76.2591 155.786 76.2591C152.845 76.2591 151.295 74.5658 151.295 71.2671C151.295 69.4046 151.6 68.05 153.512 62.8762C153.537 62.826 153.556 62.7758 153.582 62.7257C153.607 62.6504 153.632 62.5689 153.651 62.4936C155.062 58.6932 157.304 52.9237 160.842 43.6359C161.249 42.5886 160.595 41.3782 159.21 41.3782C158.555 41.3782 157.901 41.7796 157.66 42.4255C154.09 51.5628 151.746 57.5205 150.24 61.6846C145.355 72.0761 142.439 76.2591 138.647 76.2591C136.932 76.2591 136.201 75.2118 136.201 72.8726C136.201 66.6703 142.566 56.1157 142.566 48.9477C142.566 44.6769 140.769 41.372 134.893 41.372C132.199 41.372 129.671 42.9022 127.302 45.3229L127.956 43.7111C128.363 42.6638 127.549 41.4535 126.323 41.4535C125.587 41.4535 124.939 41.8549 124.691 42.5823C122.912 47.4049 120.517 54.0901 118.014 61.07C117.951 61.1578 117.887 61.2519 117.837 61.346C114.819 67.9496 111.065 76.2528 106.002 76.2528C104.287 76.2528 103.556 75.2055 103.556 72.8663C103.556 69.4046 105.024 65.6982 112.939 43.7049C113.428 42.3377 112.367 41.5287 111.306 41.5287C110.652 41.5287 109.998 41.9301 109.756 42.6576C106.167 51.845 100.374 66.5825 100.126 72.8663C99.961 76.5726 102.083 79.633 106.002 79.633C108.365 79.633 110.417 78.6547 112.253 77.0242C112.208 77.1433 112.164 77.2625 112.126 77.3816C111.802 78.3474 112.291 79.2379 113.187 79.5578C114.082 79.8024 115.061 79.401 115.391 78.4289L120.994 62.7758C120.994 62.7758 121.013 62.7382 121.019 62.7194C121.032 62.6818 121.045 62.6441 121.057 62.6065L121.102 62.4811C123.713 55.6328 129.913 44.7585 134.893 44.7585C138.075 44.7585 139.136 46.6085 139.136 48.9477C139.136 55.9527 132.771 65.3032 132.771 72.8726C132.771 76.8235 134.728 79.6393 138.647 79.6393C142.16 79.6393 144.987 77.7266 147.998 73.2363C148.595 77.4318 151.218 79.6393 155.697 79.6393H155.779C159.451 79.6393 163.205 77.2249 165.569 73.9199C166.058 77.4632 167.855 79.6393 171.444 79.6393C175.338 79.6393 178.527 77.1433 181.951 71.38C183.514 76.1776 188.215 79.6393 193.716 79.6393C201.955 79.6393 208.485 74.0829 208.65 65.3847C208.568 59.9036 206.364 57.0878 202.12 49.349L202.127 49.3678ZM200.253 43.2471C200.253 42.1182 200.494 40.6696 201.479 39.6975C202.292 38.8948 203.194 38.6502 203.194 39.7791C203.194 41.5538 201.968 44.0498 200.665 45.8246C200.418 44.9403 200.259 44.1313 200.259 43.2471H200.253Z" fill="#1D1D1B" stroke="#1D1D1B" stroke-miterlimit="10"/>
</svg>
