<svg width="25" height="24" viewBox="0 0 25 24" fill="none" xmlns="http://www.w3.org/2000/svg">
<path d="M24.2702 0.199615C24.0754 0.00617382 23.7872 -0.0528075 23.5335 0.0497054L0.895273 9.20022C0.625039 9.31045 0.453249 9.58067 0.471263 9.87277C0.489278 10.1649 0.690238 10.4134 0.972266 10.4902L11.1927 13.2777L13.9804 23.4977C14.0572 23.7795 14.3057 23.9807 14.5978 23.9987C14.6107 24 14.6246 24 14.6375 24C14.9129 24 15.164 23.8321 15.2691 23.5747L24.4212 0.937544C24.5224 0.682766 24.4634 0.39324 24.27 0.199771L24.2702 0.199615ZM14.7629 21.1897L12.4044 12.5427C12.3416 12.3108 12.1584 12.129 11.9266 12.0649L3.27911 9.70643L22.556 1.91365L14.7629 21.1897Z" fill="white"/>
</svg>
